<?xml version="1.0" standalone="no"?>
<!DOCTYPE svg PUBLIC "-//W3C//DTD SVG 20010904//EN"
 "http://www.w3.org/TR/2001/REC-SVG-20010904/DTD/svg10.dtd">
<svg version="1.0" xmlns="http://www.w3.org/2000/svg"
 width="378.000000pt" height="277.000000pt" viewBox="0 0 378.000000 277.000000"
 preserveAspectRatio="xMidYMid meet">

<g transform="translate(0.000000,277.000000) scale(0.100000,-0.100000)"
fill="#fff" stroke="none">
<path d="M300 2050 c0 -11 5 -20 11 -20 6 0 26 -7 44 -16 62 -29 65 -50 65
-448 0 -425 -6 -482 -61 -592 -34 -69 -49 -87 -102 -126 -34 -24 -88 -59 -120
-77 -63 -36 -70 -58 -16 -53 95 10 209 77 282 167 99 123 107 176 114 726 l5
446 -78 6 c-128 11 -144 10 -144 -13z"/>
<path d="M618 2063 l-57 -4 -3 -482 c-3 -412 -6 -489 -20 -529 -9 -27 -14 -48
-12 -48 2 0 23 14 48 31 27 20 61 33 90 36 25 3 46 7 46 8 0 2 -10 25 -22 52
-22 47 -23 55 -23 440 0 379 1 392 21 419 11 15 36 33 55 39 18 7 35 19 37 28
4 18 -13 19 -160 10z"/>
<path d="M1710 2052 c0 -13 9 -21 28 -25 48 -10 122 -64 122 -89 -1 -127 -32
-670 -41 -702 -15 -56 -45 -102 -80 -123 -16 -10 -29 -24 -29 -33 0 -23 333
-21 338 2 2 10 -7 18 -22 22 -43 11 -93 63 -111 116 -14 42 -14 52 -2 83 10
24 17 101 22 263 4 126 11 247 15 269 l7 40 40 -85 c21 -47 102 -225 179 -397
76 -172 142 -313 145 -313 3 0 16 18 28 41 l23 40 -207 442 c-114 243 -210
445 -213 448 -4 4 -60 10 -124 14 -113 6 -118 6 -118 -13z"/>
<path d="M2891 2063 l-74 -4 6 -82 c4 -45 14 -264 23 -487 9 -223 20 -408 23
-412 3 -3 53 -8 111 -10 91 -3 105 -1 108 14 2 11 -6 18 -26 23 -45 9 -79 53
-96 120 -14 57 -36 433 -36 609 0 107 25 160 86 188 24 10 44 25 44 33 0 16 2
16 -169 8z"/>
<path d="M2020 2053 c0 -12 374 -803 380 -803 3 0 64 139 137 308 72 168 136
308 141 310 6 2 13 -87 17 -225 4 -125 12 -250 17 -278 15 -74 11 -129 -11
-173 -20 -38 -73 -92 -92 -92 -5 0 -9 -8 -9 -18 0 -18 8 -19 103 -14 56 2 105
7 108 11 5 4 -34 967 -40 979 0 1 -20 2 -44 2 l-43 0 -138 -315 c-77 -174
-144 -314 -150 -312 -6 2 -74 144 -151 315 l-140 312 -42 0 c-24 0 -43 -3 -43
-7z"/>
<path d="M967 1733 c-4 -3 -7 -21 -7 -40 l0 -33 289 0 289 0 21 36 c12 19 21
37 21 40 0 7 -606 5 -613 -3z"/>
<path d="M946 1608 c-12 -39 -26 -107 -28 -133 -4 -44 22 -42 55 5 15 23 39
45 53 50 40 15 304 13 303 -2 0 -7 -49 -69 -108 -138 l-108 -125 56 -11 c137
-26 201 -106 201 -253 -1 -104 -46 -182 -126 -216 -124 -51 -254 -5 -316 113
-9 17 -25 32 -34 32 -14 0 -16 -7 -11 -36 28 -173 219 -261 393 -180 67 32
134 94 164 152 22 43 25 62 25 149 0 89 -3 106 -27 151 -33 62 -86 109 -150
132 -27 9 -48 20 -48 23 0 4 52 69 115 145 63 77 115 142 115 147 0 4 -117 7
-260 7 -200 0 -261 -3 -264 -12z"/>
<path d="M1478 1178 c46 -115 41 -269 -14 -365 -30 -52 -30 -54 5 -42 37 13
87 63 114 113 31 58 30 174 0 232 -20 38 -106 124 -123 124 -4 0 4 -28 18 -62z"/>
<path d="M1751 1043 c-42 -4 -43 -5 -20 -17 13 -7 34 -18 45 -26 19 -12 25
-10 53 9 17 12 29 27 26 32 -6 9 -19 9 -104 2z"/>
<path d="M2650 1041 c-39 -5 -42 -7 -20 -13 33 -10 175 2 158 13 -14 10 -68 9
-138 0z"/>
<path d="M2993 1033 c15 -2 39 -2 55 0 15 2 2 4 -28 4 -30 0 -43 -2 -27 -4z"/>
</g>
</svg>
